<svg width="12" height="16" viewBox="0 0 12 16" fill="none" xmlns="http://www.w3.org/2000/svg">
<path fill-rule="evenodd" clip-rule="evenodd" d="M9.00049 4C9.00049 5.65685 7.65734 7 6.00049 7C4.34363 7 3.00049 5.65685 3.00049 4C3.00049 2.34315 4.34363 1 6.00049 1C6.79614 1 7.5592 1.31607 8.12181 1.87868C8.68442 2.44129 9.00049 3.20435 9.00049 4Z" stroke="currentColor" stroke-width="1.5" stroke-linecap="round" stroke-linejoin="round"/>
<path fill-rule="evenodd" clip-rule="evenodd" d="M8.56736 9H3.43336C3.11059 9.00041 2.79016 9.05483 2.48536 9.161C-1.02465 10.372 2.31435 15 6.00035 15C9.68635 15 13.0254 10.372 9.51435 9.161C9.20987 9.05494 8.88979 9.00052 8.56736 9Z" stroke="currentColor" stroke-width="1.5" stroke-linecap="round" stroke-linejoin="round"/>
</svg>
