<svg width="16" height="16" viewBox="0 0 16 16" fill="none" xmlns="http://www.w3.org/2000/svg">
<path fill-rule="evenodd" clip-rule="evenodd" d="M8 6.6L1 3.8L8 1L15 3.8L8 6.6Z" stroke="currentColor" stroke-width="1.5" stroke-linecap="round" stroke-linejoin="round"/>
<path d="M1.27854 11.5036C0.893955 11.3498 0.457478 11.5369 0.303642 11.9215C0.149807 12.306 0.336869 12.7425 0.721457 12.8964L1.27854 11.5036ZM8 15L7.72146 15.6964C7.90027 15.7679 8.09973 15.7679 8.27854 15.6964L8 15ZM15.2785 12.8964C15.6631 12.7425 15.8502 12.306 15.6964 11.9215C15.5425 11.5369 15.106 11.3498 14.7215 11.5036L15.2785 12.8964ZM1.27854 7.30364C0.893955 7.14981 0.457478 7.33687 0.303642 7.72146C0.149807 8.10604 0.336869 8.54252 0.721457 8.69636L1.27854 7.30364ZM8 10.8L7.72146 11.4964C7.90027 11.5679 8.09973 11.5679 8.27854 11.4964L8 10.8ZM15.2785 8.69636C15.6631 8.54252 15.8502 8.10604 15.6964 7.72146C15.5425 7.33687 15.106 7.14981 14.7215 7.30364L15.2785 8.69636ZM0.721457 12.8964L7.72146 15.6964L8.27854 14.3036L1.27854 11.5036L0.721457 12.8964ZM8.27854 15.6964L15.2785 12.8964L14.7215 11.5036L7.72146 14.3036L8.27854 15.6964ZM0.721457 8.69636L7.72146 11.4964L8.27854 10.1036L1.27854 7.30364L0.721457 8.69636ZM8.27854 11.4964L15.2785 8.69636L14.7215 7.30364L7.72146 10.1036L8.27854 11.4964Z" fill="currentColor"/>
</svg>
