<svg width="13" height="16" viewBox="0 0 13 16" fill="none" xmlns="http://www.w3.org/2000/svg">
<path fill-rule="evenodd" clip-rule="evenodd" d="M12.0003 13.2342C11.9691 12.3071 11.1977 11.5777 10.2703 11.5986C9.3429 11.6194 8.60498 12.3826 8.6154 13.3102C8.62583 14.2377 9.38073 14.9842 10.3083 14.9842C11.2586 14.9677 12.0159 14.1845 12.0003 13.2342Z" stroke="currentColor" stroke-width="1.5" stroke-linecap="round" stroke-linejoin="round"/>
<path fill-rule="evenodd" clip-rule="evenodd" d="M6.07735 7.98413C6.10075 9.40999 4.9642 10.585 3.53836 10.6091C2.1129 10.5845 0.97696 9.40961 1.00035 7.98413C0.97696 6.55866 2.1129 5.38378 3.53836 5.35913C4.9642 5.38323 6.10075 6.55827 6.07735 7.98413Z" stroke="currentColor" stroke-width="1.5" stroke-linecap="round" stroke-linejoin="round"/>
<path fill-rule="evenodd" clip-rule="evenodd" d="M11.1544 2.73414C11.1693 3.34862 10.85 3.92293 10.3202 4.23456C9.79041 4.54619 9.13332 4.54619 8.60351 4.23456C8.07371 3.92293 7.75442 3.34862 7.76936 2.73414C7.75442 2.11966 8.07371 1.54536 8.60351 1.23372C9.13332 0.922092 9.79041 0.922092 10.3202 1.23372C10.85 1.54536 11.1693 2.11966 11.1544 2.73414Z" stroke="currentColor" stroke-width="1.5" stroke-linecap="round" stroke-linejoin="round"/>
<path d="M8.6046 12.688C8.94253 12.9275 9.41066 12.8478 9.6502 12.5099C9.88974 12.1719 9.80998 11.7038 9.47206 11.4643L8.6046 12.688ZM5.97206 8.98327C5.63413 8.74373 5.166 8.82349 4.92646 9.16142C4.68692 9.49934 4.76668 9.96747 5.1046 10.207L5.97206 8.98327ZM8.70089 4.44267C9.00328 4.15959 9.01893 3.68498 8.73586 3.38259C8.45278 3.08019 7.97816 3.06454 7.67577 3.34761L8.70089 4.44267ZM5.02977 5.82461C4.72738 6.10769 4.71173 6.58231 4.9948 6.8847C5.27788 7.18709 5.7525 7.20275 6.05489 6.91967L5.02977 5.82461ZM9.47206 11.4643L5.97206 8.98327L5.1046 10.207L8.6046 12.688L9.47206 11.4643ZM7.67577 3.34761L5.02977 5.82461L6.05489 6.91967L8.70089 4.44267L7.67577 3.34761Z" fill="currentColor"/>
</svg>
